<?xml version="1.0" encoding="utf-8"?>
<!-- Generator: Adobe Illustrator 25.3.1, SVG Export Plug-In . SVG Version: 6.00 Build 0)  -->
<svg version="1.1" id="Camada_1" xmlns="http://www.w3.org/2000/svg" xmlns:xlink="http://www.w3.org/1999/xlink" x="0px" y="0px"
	 viewBox="0 0 1125 2436" style="enable-background:new 0 0 1125 2436;" xml:space="preserve">
<style type="text/css">
	.st0{clip-path:url(#SVGID_2_);}
	.st1{fill:#FFFFFF;}
	.st2{fill:#D7E2FF;}
	.st3{fill:#107878;fill-opacity:0.6;}
</style>
<g>
	<defs>
		<rect id="SVGID_1_" y="1.38" width="1125" height="2434.62"/>
	</defs>
	<clipPath id="SVGID_2_">
		<use xlink:href="#SVGID_1_"  style="overflow:visible;"/>
	</clipPath>
	<g class="st0">
		<rect y="1.38" class="st1" width="1125" height="2434.62"/>
		<path class="st1" d="M0,1.38h1125V2436H0V1.38z"/>
		<path class="st2" d="M96.42-272.4c13.34-41.05,65.39-53.45,95.81-22.82l661.69,666.31c31.74,31.96,16.25,86.34-27.57,96.77
			l-951.87,226.77c-43.81,10.44-82.16-31.11-68.24-73.95L96.42-272.4z"/>
		<path class="st3" d="M96.42-376.25c13.34-41.05,65.39-53.45,95.81-22.82l661.69,666.31c31.74,31.96,16.25,86.34-27.57,96.77
			l-951.87,226.77c-43.81,10.44-82.16-31.11-68.24-73.95L96.42-376.25z"/>
		<path class="st2" d="M-293.43,2108.56c-27.91-32.93-11.1-83.72,30.95-93.5l1369.7-318.38c43.87-10.2,81.99,31.56,67.83,74.32
			L714.59,3162.09c-14.15,42.78-69.66,53.54-98.78,19.18L-293.43,2108.56z"/>
		<path class="st3" d="M-253.05,2195.12c-27.91-32.93-11.1-83.73,30.95-93.5l1369.7-318.38c43.87-10.2,81.99,31.57,67.83,74.33
			L754.97,3248.65c-14.15,42.75-69.66,53.54-98.78,19.18L-253.05,2195.12z"/>
		<path class="st2" d="M1637.82,1521c10.94,41.76-26.18,80.29-68.32,70.93L239.2,1296.41c-43.97-9.77-60.29-63.9-29.04-96.34
			l985.08-1022.75c31.25-32.44,85.95-18.16,97.36,25.41L1637.82,1521z"/>
		<path class="st3" d="M1665.89,1645.27c10.94,41.76-26.18,80.29-68.32,70.93l-1330.3-295.53c-43.97-9.77-60.29-63.9-29.04-96.34
			L1223.3,301.58c31.25-32.44,85.95-18.16,97.36,25.41L1665.89,1645.27z"/>
	</g>
</g>
</svg>
