<?xml version="1.0" encoding="utf-8"?>
<!-- Generator: Adobe Illustrator 25.3.1, SVG Export Plug-In . SVG Version: 6.00 Build 0)  -->
<svg version="1.1" id="Camada_1" xmlns="http://www.w3.org/2000/svg" xmlns:xlink="http://www.w3.org/1999/xlink" x="0px" y="0px"
	 viewBox="0 0 859 1075" style="enable-background:new 0 0 859 1075;" xml:space="preserve">
<path d="M793,360L628.71,199v57.5L729,362v90l49.29,56.86c0,83.71,0,167.43,0,251.14c-4.93,25.47-27.14,44.1-52.79,44.5
	c-26.27,0.41-49.45-18.41-54.5-44.5c0-85.33,0-170.67,0-256c-1.81-8.71-7.42-29.65-26-47c-23.83-22.26-53.35-24.03-68-23.31
	c0-82.23,0-164.46,0-246.69c0.17-2.27,0.42-9.61-4.5-16.5c-7.15-10.02-19.1-10.47-20.5-10.5c-131,0-262,0-393,0
	c-1.31-0.02-9.35-0.01-15.5,6.5c-6.59,6.98-5.65,15.74-5.5,16.93V210l-0.5,690.5c-16.33,0-32.67,0-49,0c-1.2-0.2-11.87-1.8-20,6
	c-6.43,6.16-6.93,14.04-7,15.79c0,18.07,0,36.14,0,54.21c-0.24,2.95-0.04,7,2,11c4.19,8.21,14.46,12.9,26,12
	c178.67,0,357.33,0,536,0c1.83,0.07,8.82,0.11,15-5c8.04-6.65,8.02-16.49,8-17.79c0-19.07,0-38.14,0-57.21c0.06-1.02,0.38-8.02-5-13
	c-3.28-3.04-7.01-3.78-8.57-4H577c0-141.04,0-282.07,0-423.11c8.01-0.6,20.89,0.17,33,8.61c12.95,9.02,17.6,21.62,19,26
	c-0.17,83.5-0.33,167-0.5,250.5c6.14,48.91,48.07,85.93,97,86c48.29,0.07,89.95-35.87,97-84c0.17-121.83,0.33-243.67,0.5-365.5
	L793,360z M530.57,508.86H183.5V256.5h347.07V508.86z"/>
</svg>
