<?xml version="1.0" encoding="utf-8"?>
<!-- Generator: Adobe Illustrator 25.3.1, SVG Export Plug-In . SVG Version: 6.00 Build 0)  -->
<svg version="1.1" id="Camada_1" xmlns="http://www.w3.org/2000/svg" xmlns:xlink="http://www.w3.org/1999/xlink" x="0px" y="0px"
	 viewBox="0 0 595.28 841.89" style="enable-background:new 0 0 595.28 841.89;" xml:space="preserve">
<style type="text/css">
	.st0{fill:#107878;}
</style>
<g>
	<path class="st0" d="M386.9,401.09c-16.09-8.56-39.29-16.89-69.58-25l0,0v-84.22c10.44-1.72,20.88-3.44,31.32-5.15
		c8.21-8.04,16.43-16.07,24.64-24.11l25.71,8.57c15.43,11.29,30.86,22.57,46.29,33.86c1.09,0.6,3.28,1.62,6.21,1.71
		c3.42,0.11,5.97-1.1,7.07-1.71l19.29-8.57c-23.57-16.43-47.14-32.86-70.71-49.29c-2.64-4.23-6.54-9.52-12.11-14.79
		c-6.68-6.31-13.35-10.29-18.32-12.75c2.14-6.92,0.79-13.73-3.51-17.23c-0.97-0.79-2.73-1.92-5.49-2.38L330,190.6h-12.14v-46.16
		h-70.62v58.82l-12.85,2.46l-0.4,0.85c-14.74,2.46-28.17,6.28-40.27,11.49c-22.9,9.87-40.44,24.24-52.61,43.1
		c-12.17,18.87-18.25,39.14-18.25,60.81c0,33.67,12.94,62.22,38.81,85.63c17.06,15.43,45.81,28.61,86.25,39.55l0,0V566.2
		c-10.41-3.29-19.48-8.25-27.18-14.9c-15.24-13.16-25.35-33.77-30.33-61.83l-82.79,8.13c5.56,47.6,22.61,83.84,51.17,108.7
		c22.22,19.35,51.93,31.17,89.13,35.46l0,0v55.68h69.41v-55.71c21.22-2.34,39.87-6.89,55.92-13.66
		c24.53-10.35,43.5-26.17,56.92-47.46c13.41-21.28,20.12-44.12,20.12-68.5c0-26.89-5.61-49.49-16.82-67.78
		C422.26,426.05,406.73,411.64,386.9,401.09z M320.57,231.75c1.14,5.64,2.29,11.29,3.43,16.93c0.14,0.21,2.6,4.03,0.64,8.25
		c-1.94,4.17-10.2,7.36-14.14,6.96c-2.68-0.27-4.54-1.52-5.36-2.14c-5,7.29-10,14.57-15,21.86c-0.69,1.07-2.15,3.03-4.71,4.57
		c-2.51,1.51-4.88,1.89-6.14,2c-12.38,1.85-24.77,3.7-37.15,5.55c-1.06-0.2-4.6-1-7.42-4.26c-2.65-3.06-3.04-6.43-3.12-7.54
		c-3.74-11.76-5.38-21.24-6.16-27.74c-0.47-3.92-0.78-7.98,1.43-11.86c3.33-5.84,9.21-7.22,10.14-7.43
		c21.57-4.14,43.14-8.29,64.71-12.43c0.58-0.18,10.32-3,16.07,2.79C318.66,228.13,319.79,229.55,320.57,231.75z M204.21,316.18
		c0-5.37,1.07-10.2,3.2-14.52c2.96-5.98,6.39-7.63,9.18-10.57c0.52,2.64,1.04,5.29,1.56,7.93c0.83,4.84,3.17,6.8,4.09,7.45
		c2.46,1.75,5.45,1.64,11.34,1.33c3.99-0.21,7.24-0.68,9.43-1.07c1.64-0.33,3.28-0.66,4.92-0.99v51.42
		c-14.87-5.17-25.23-10.22-31.06-15.16C208.42,334.86,204.21,326.25,204.21,316.18z M344.35,553.48
		c-7.2,6.06-16.22,10.54-27.03,13.46V465.57c3.45,1.04,6.28,1.94,8.49,2.71c14.56,5.23,24.77,11.37,30.62,18.43
		c5.84,7.07,8.77,15.63,8.77,25.69C365.19,528.08,358.25,541.77,344.35,553.48z"/>
	<path class="st0" d="M467.18,341.47l-13.21-28.31l-13.21,28.31c-1.26,2.21-1.99,4.77-1.99,7.5c0,8.4,6.81,15.2,15.2,15.2
		s15.2-6.81,15.2-15.2C469.16,346.24,468.43,343.69,467.18,341.47z"/>
</g>
</svg>
